<svg width="56" height="56" viewBox="0 0 56 56" fill="none" xmlns="http://www.w3.org/2000/svg">
<g clip-path="url(#clip0_9_278)">
<path d="M40.1555 38.5C39.7617 34.9515 38.174 31.642 35.6526 29.1143C33.1312 26.5865 29.8258 24.9904 26.2783 24.5876C22.7308 24.1849 19.1517 24.9994 16.1278 26.8976C13.104 28.7958 10.8147 31.6651 9.6355 35.035C6.93329 35.2562 4.42138 36.514 2.62558 38.5453C0.82977 40.5765 -0.110715 43.2236 0.000989311 45.9326C0.112694 48.6415 1.26793 51.2023 3.22487 53.0788C5.18182 54.9552 7.78876 56.002 10.5 56H40.25C42.5706 56 44.7962 55.0781 46.4372 53.4372C48.0781 51.7962 49 49.5706 49 47.25C49 44.9293 48.0781 42.7037 46.4372 41.0628C44.7962 39.4219 42.5706 38.5 40.25 38.5H40.1555Z" fill="#149CD7"/>
<path d="M39.501 6.22298C39.7022 5.92195 39.805 5.56593 39.7953 5.204C39.7857 4.84207 39.664 4.49204 39.4471 4.20216C39.2302 3.91228 38.9287 3.69682 38.5841 3.58548C38.2396 3.47413 37.869 3.47239 37.5235 3.58048C33.8996 4.71538 30.7942 7.09602 28.7571 10.3009C26.7201 13.5057 25.8828 17.328 26.3935 21.091C27.6454 21.2127 28.8822 21.4577 30.086 21.8225C29.5455 19.5191 29.664 17.1102 30.4277 14.871C31.1914 12.6317 32.5697 10.6525 34.405 9.15949C33.7988 11.4969 33.727 13.9408 34.1948 16.3097C34.6627 18.6786 35.6582 20.9118 37.1075 22.8432C38.5567 24.7746 40.4225 26.3548 42.5661 27.4663C44.7098 28.5777 47.0764 29.192 49.49 29.2635C47.1964 30.8577 44.4354 31.6388 41.6465 31.4825C42.2135 32.592 42.679 33.7645 43.0255 34.9825C45.5525 34.8749 48.0184 34.1721 50.2225 32.9314C52.4266 31.6907 54.3066 29.9471 55.7095 27.8425C55.9107 27.5415 56.0135 27.1854 56.0039 26.8235C55.9942 26.4616 55.8725 26.1115 55.6556 25.8217C55.4387 25.5318 55.1372 25.3163 54.7926 25.205C54.4481 25.0936 54.0775 25.0919 53.732 25.2C51.2495 25.9792 48.5863 25.9692 46.1097 25.1713C43.6331 24.3735 41.465 22.827 39.9042 20.7452C38.3434 18.6633 37.4668 16.1486 37.3952 13.5476C37.3236 10.9467 38.0606 8.38752 39.5045 6.22298H39.501Z" fill="#149CD7"/>
</g>
<defs>
<clipPath id="clip0_9_278">
<rect width="56" height="56" fill="white"/>
</clipPath>
</defs>
</svg>
