<svg width="56" height="56" viewBox="0 0 56 56" fill="none" xmlns="http://www.w3.org/2000/svg">
<g clip-path="url(#clip0_9_286)">
<path d="M28 7C28.4641 7 28.9093 7.18437 29.2374 7.51256C29.5656 7.84075 29.75 8.28587 29.75 8.75V14C29.75 14.4641 29.5656 14.9092 29.2374 15.2374C28.9093 15.5656 28.4641 15.75 28 15.75C27.5359 15.75 27.0908 15.5656 26.7626 15.2374C26.4344 14.9092 26.25 14.4641 26.25 14V8.75C26.25 8.28587 26.4344 7.84075 26.7626 7.51256C27.0908 7.18437 27.5359 7 28 7ZM13.062 13.062C13.3902 12.7339 13.8352 12.5496 14.2992 12.5496C14.7633 12.5496 15.2083 12.7339 15.5365 13.062L18.739 16.261C19.0676 16.5896 19.2522 17.0353 19.2522 17.5C19.2522 17.9647 19.0676 18.4104 18.739 18.739C18.4104 19.0676 17.9647 19.2522 17.5 19.2522C17.0353 19.2522 16.5896 19.0676 16.261 18.739L13.062 15.5365C12.7339 15.2083 12.5496 14.7633 12.5496 14.2992C12.5496 13.8352 12.7339 13.3902 13.062 13.062ZM7 28C7 27.5359 7.18437 27.0908 7.51256 26.7626C7.84075 26.4344 8.28587 26.25 8.75 26.25H14.301C14.7651 26.25 15.2102 26.4344 15.5384 26.7626C15.8666 27.0908 16.051 27.5359 16.051 28C16.051 28.4641 15.8666 28.9093 15.5384 29.2374C15.2102 29.5656 14.7651 29.75 14.301 29.75H8.75C8.28587 29.75 7.84075 29.5656 7.51256 29.2374C7.18437 28.9093 7 28.4641 7 28ZM40.25 28C40.25 27.5359 40.4344 27.0908 40.7626 26.7626C41.0908 26.4344 41.5359 26.25 42 26.25H47.25C47.7141 26.25 48.1592 26.4344 48.4874 26.7626C48.8156 27.0908 49 27.5359 49 28C49 28.4641 48.8156 28.9093 48.4874 29.2374C48.1592 29.5656 47.7141 29.75 47.25 29.75H42C41.5359 29.75 41.0908 29.5656 40.7626 29.2374C40.4344 28.9093 40.25 28.4641 40.25 28ZM42.889 13.139C42.6465 12.8978 42.3222 12.7567 41.9804 12.7437C41.6387 12.7307 41.3045 12.8469 41.0445 13.069L26.4145 25.585C26.0775 25.8735 25.8045 26.2292 25.613 26.6293C25.4215 27.0295 25.3156 27.4652 25.3023 27.9086C25.289 28.352 25.3684 28.7933 25.5355 29.2043C25.7026 29.6152 25.9537 29.9867 26.2727 30.2949C26.5917 30.6032 26.9716 30.8414 27.3881 30.9943C27.8045 31.1472 28.2483 31.2114 28.6909 31.1828C29.1336 31.1543 29.5655 31.0335 29.9588 30.8284C30.3521 30.6232 30.6982 30.3382 30.975 29.9915L42.994 14.952C43.2031 14.6903 43.3084 14.3606 43.2896 14.0261C43.2709 13.6916 43.1295 13.3758 42.8925 13.139H42.889Z" fill="#149CD7"/>
<path fill-rule="evenodd" clip-rule="evenodd" d="M23.324 55.6115C19.6978 54.9974 16.228 53.6751 13.1128 51.7201C9.9976 49.7651 7.29797 47.2157 5.16805 44.2173C0.866484 38.1619 -0.853402 30.6457 0.38675 23.3222C1.6269 15.9988 5.72551 9.46787 11.7809 5.1663C17.8363 0.864729 25.3525 -0.855157 32.676 0.384995C40 1.62515 46.5313 5.72394 50.8332 11.7797C55.1351 17.8354 56.8552 25.352 55.615 32.676C54.3749 40 50.2761 46.5313 44.2203 50.8332C38.1646 55.1351 30.648 56.8551 23.324 55.615V55.6115ZM6.9965 40.621C13.3794 36.9277 20.6256 34.9885 28 35C35.651 35 42.826 37.0475 49.0035 40.621C51.2361 36.9034 52.4419 32.6599 52.498 28.3239C52.554 23.9878 51.4581 19.7146 49.3223 15.9406C47.1865 12.1666 44.0873 9.02708 40.3412 6.84271C36.5952 4.65835 32.3364 3.50739 28 3.50739C23.6636 3.50739 19.4048 4.65835 15.6588 6.84271C11.9127 9.02708 8.81347 12.1666 6.67767 15.9406C4.54188 19.7146 3.44603 23.9878 3.50204 28.3239C3.55806 32.6599 4.76393 36.9034 6.9965 40.621Z" fill="#149CD7"/>
</g>
<defs>
<clipPath id="clip0_9_286">
<rect width="56" height="56" fill="white"/>
</clipPath>
</defs>
</svg>
