<svg width="56" height="56" viewBox="0 0 56 56" fill="none" xmlns="http://www.w3.org/2000/svg">
<path d="M28 49C27.6074 48.9991 27.2152 48.9734 26.8258 48.923C23.2292 43.16 21.2379 36.5408 21.0578 29.75H52.4125C52.4545 29.169 52.5 28.5898 52.5 28C52.5 23.1544 51.0631 18.4175 48.371 14.3885C45.6789 10.3595 41.8525 7.21931 37.3757 5.36496C32.899 3.51062 27.9728 3.02543 23.2203 3.97077C18.4678 4.91611 14.1023 7.24951 10.6759 10.6759C7.2495 14.1023 4.9161 18.4678 3.97076 23.2203C3.02543 27.9728 3.51061 32.899 5.36495 37.3758C7.2193 41.8525 10.3595 45.6789 14.3885 48.371C18.4175 51.0631 23.1544 52.5 28 52.5V49ZM48.9125 26.25H38.4352C38.247 19.8106 36.5998 13.4978 33.6175 7.78751C37.7448 8.93923 41.4215 11.3248 44.1551 14.6245C46.8887 17.9242 48.5487 21.9805 48.9125 26.25ZM29.1725 7.07701C32.7696 12.8398 34.7616 19.4591 34.9423 26.25H21.0578C21.2384 19.4591 23.2304 12.8398 26.8275 7.07701C27.607 6.97476 28.3965 6.97476 29.176 7.07701H29.1725ZM22.3808 7.78576C19.399 13.4968 17.7523 19.8101 17.5648 26.25H7.0875C7.45159 21.9806 9.1116 17.9244 11.8452 14.6247C14.5788 11.325 18.2554 8.93946 22.3825 7.78751L22.3808 7.78576ZM7.0875 29.75H17.5648C17.7531 36.1894 19.4004 42.5021 22.3825 48.2125C18.2554 47.0606 14.5788 44.675 11.8452 41.3753C9.1116 38.0756 7.45159 34.0194 7.0875 29.75Z" fill="#149CD7"/>
<path fill-rule="evenodd" clip-rule="evenodd" d="M43.75 43.75L52.5 47.25V43.75L43.75 39.375V35C43.75 34.5359 43.5656 34.0908 43.2374 33.7626C42.9092 33.4344 42.4641 33.25 42 33.25C41.5359 33.25 41.0908 33.4344 40.7626 33.7626C40.4344 34.0908 40.25 34.5359 40.25 35V39.375L31.5 43.75V47.25L40.25 43.75V49.875L36.75 52.5V54.25L42 52.5L47.25 54.25V52.5L43.75 49.875V43.75Z" fill="#149CD7"/>
</svg>
