<svg width="56" height="56" viewBox="0 0 56 56" fill="none" xmlns="http://www.w3.org/2000/svg">
<path fill-rule="evenodd" clip-rule="evenodd" d="M45.5 10.5C45.5 9.57174 45.1312 8.6815 44.4749 8.02513C43.8185 7.36875 42.9283 7 42 7H14C13.0717 7 12.1815 7.36875 11.5251 8.02513C10.8687 8.6815 10.5 9.57174 10.5 10.5V45.5C10.5 46.4283 10.8687 47.3185 11.5251 47.9749C12.1815 48.6312 13.0717 49 14 49H28V45.5H14V10.5H42V21H45.5V10.5Z" fill="#149CD7"/>
<path d="M17.5 31.5H28V35H17.5V31.5ZM17.5 24.5H38.5V28H17.5V24.5Z" fill="#149CD7"/>
<path fill-rule="evenodd" clip-rule="evenodd" d="M38.5 17.5V21H17.5V17.5H38.5ZM43.75 40.25L52.5 43.75V40.25L43.75 35.875V31.5C43.75 31.0359 43.5656 30.5908 43.2374 30.2626C42.9093 29.9344 42.4641 29.75 42 29.75C41.5359 29.75 41.0907 29.9344 40.7626 30.2626C40.4344 30.5908 40.25 31.0359 40.25 31.5V35.875L31.5 40.25V43.75L40.25 40.25V46.375L36.75 49V50.75L42 49L47.25 50.75V49L43.75 46.375V40.25Z" fill="#149CD7"/>
</svg>
