<svg width="18" height="18" viewBox="0 0 18 18" fill="none" xmlns="http://www.w3.org/2000/svg">
<path d="M10.365 16.5H7.635C7.46395 16.5 7.29803 16.4416 7.16476 16.3344C7.03148 16.2271 6.93886 16.0776 6.90225 15.9105L6.597 14.4975C6.1898 14.3191 5.80368 14.096 5.44575 13.8323L4.068 14.271C3.90493 14.323 3.72897 14.3177 3.56934 14.2559C3.40972 14.1941 3.27604 14.0795 3.19051 13.9313L1.8225 11.568C1.73786 11.4196 1.70609 11.2469 1.73239 11.0781C1.75868 10.9093 1.84149 10.7544 1.96725 10.6388L3.036 9.66375C2.9874 9.22208 2.9874 8.77642 3.036 8.33475L1.96725 7.362C1.84131 7.24633 1.75839 7.09131 1.73209 6.92234C1.70579 6.75337 1.73767 6.58048 1.8225 6.432L3.1875 4.06725C3.27304 3.91899 3.40672 3.80444 3.56634 3.74264C3.72597 3.68084 3.90193 3.6755 4.065 3.7275L5.44275 4.16625C5.62575 4.03125 5.81625 3.90525 6.01275 3.79125C6.2025 3.68475 6.3975 3.588 6.597 3.50175L6.90301 2.09025C6.93943 1.92315 7.03188 1.77352 7.16501 1.66616C7.29815 1.55881 7.46398 1.50018 7.635 1.5H10.365C10.536 1.50018 10.7019 1.55881 10.835 1.66616C10.9681 1.77352 11.0606 1.92315 11.097 2.09025L11.406 3.5025C11.8127 3.68195 12.1987 3.90501 12.5573 4.16775L13.9358 3.729C14.0987 3.67719 14.2745 3.68263 14.434 3.74442C14.5934 3.80621 14.727 3.92065 14.8125 4.06875L16.1775 6.4335C16.3515 6.73875 16.2915 7.125 16.0328 7.36275L14.964 8.33775C15.0126 8.77942 15.0126 9.22508 14.964 9.66675L16.0328 10.6418C16.2915 10.8802 16.3515 11.2657 16.1775 11.571L14.8125 13.9357C14.727 14.084 14.5933 14.1986 14.4337 14.2604C14.274 14.3222 14.0981 14.3275 13.935 14.2755L12.5573 13.8368C12.1996 14.1003 11.8137 14.3231 11.4068 14.5012L11.097 15.9105C11.0604 16.0775 10.9679 16.2269 10.8348 16.3341C10.7017 16.4413 10.5359 16.4999 10.365 16.5ZM8.99701 6C8.20136 6 7.43829 6.31607 6.87568 6.87868C6.31308 7.44129 5.997 8.20435 5.997 9C5.997 9.79565 6.31308 10.5587 6.87568 11.1213C7.43829 11.6839 8.20136 12 8.99701 12C9.79265 12 10.5557 11.6839 11.1183 11.1213C11.6809 10.5587 11.997 9.79565 11.997 9C11.997 8.20435 11.6809 7.44129 11.1183 6.87868C10.5557 6.31607 9.79265 6 8.99701 6Z" fill="white"/>
</svg>
