<svg width="56" height="56" viewBox="0 0 56 56" fill="none" xmlns="http://www.w3.org/2000/svg">
<path d="M43.5556 23.9556V46.6667H12.4444V9.33333H31.1111V12.8333L34.6111 6.76667L34.0511 6.22222H12.18C11.4098 6.24261 10.6788 6.56612 10.1457 7.12244C9.61272 7.67877 9.32077 8.42297 9.33334 9.19333V46.8067C9.32077 47.577 9.61272 48.3212 10.1457 48.8776C10.6788 49.4339 11.4098 49.7574 12.18 49.7778H43.82C44.5902 49.7574 45.3212 49.4339 45.8543 48.8776C46.3873 48.3212 46.6792 47.577 46.6667 46.8067V23.9556H43.5556Z" fill="#149CD7"/>
<path d="M41.7667 1.77333L32.8689 17.1111C32.6619 17.415 32.543 17.7702 32.5255 18.1374C32.508 18.5047 32.5926 18.8696 32.7698 19.1917C32.9469 19.5139 33.2099 19.7807 33.5294 19.9626C33.8489 20.1445 34.2125 20.2343 34.58 20.2222H52.3911C52.7586 20.2343 53.1222 20.1445 53.4417 19.9626C53.7613 19.7807 54.0242 19.5139 54.2014 19.1917C54.3785 18.8696 54.4631 18.5047 54.4456 18.1374C54.4281 17.7702 54.3092 17.415 54.1022 17.1111L45.2044 1.77333C45.029 1.4732 44.778 1.22424 44.4764 1.05123C44.1748 0.878216 43.8332 0.787182 43.4856 0.787182C43.1379 0.787182 42.7963 0.878216 42.4947 1.05123C42.1931 1.22424 41.9421 1.4732 41.7667 1.77333Z" fill="#149CD7"/>
</svg>
