<svg width="56" height="56" viewBox="0 0 56 56" fill="none" xmlns="http://www.w3.org/2000/svg">
<path d="M5.6 19.6C5.60071 15.9013 6.82199 12.3063 9.07437 9.3725C11.3268 6.43875 14.4843 4.33029 18.0573 3.37421C21.6303 2.41813 25.4189 2.66787 28.8354 4.08469C32.252 5.5015 35.1055 8.0062 36.9533 11.2102C38.8011 14.4143 39.5399 18.1385 39.0551 21.8053C38.5702 25.472 36.8889 28.8763 34.272 31.4901C31.655 34.1038 28.2486 35.7808 24.5812 36.261C20.9138 36.7412 17.1905 35.9978 13.9888 34.146L7.4424 36.33C7.20054 36.4107 6.94122 36.4239 6.69243 36.3681C6.44364 36.3122 6.21482 36.1895 6.03067 36.0131C5.84652 35.8368 5.71404 35.6134 5.64752 35.3673C5.58099 35.1211 5.58296 34.8615 5.6532 34.6164L7.6468 27.6416C6.30004 25.1755 5.59612 22.4099 5.6 19.6ZM18.2 15.4C17.8287 15.4 17.4726 15.5475 17.21 15.81C16.9475 16.0726 16.8 16.4287 16.8 16.8C16.8 17.1713 16.9475 17.5274 17.21 17.7899C17.4726 18.0525 17.8287 18.2 18.2 18.2H26.6C26.9713 18.2 27.3274 18.0525 27.5899 17.7899C27.8525 17.5274 28 17.1713 28 16.8C28 16.4287 27.8525 16.0726 27.5899 15.81C27.3274 15.5475 26.9713 15.4 26.6 15.4H18.2ZM23.8 21H18.2C17.8287 21 17.4726 21.1475 17.21 21.41C16.9475 21.6726 16.8 22.0287 16.8 22.4C16.8 22.7713 16.9475 23.1274 17.21 23.3899C17.4726 23.6525 17.8287 23.8 18.2 23.8H23.8C24.1713 23.8 24.5274 23.6525 24.7899 23.3899C25.0525 23.1274 25.2 22.7713 25.2 22.4C25.2 22.0287 25.0525 21.6726 24.7899 21.41C24.5274 21.1475 24.1713 21 23.8 21Z" fill="#149CD7"/>
<path d="M34.3728 41.8516L27.6472 38.4916C28.8792 38.1472 30.0636 37.688 31.1836 37.1252L35 39.0348L47.6 32.7348V30.8C47.6 30.0574 47.305 29.3452 46.7799 28.8201C46.2548 28.295 45.5426 28 44.8 28H40.1128C40.5412 27.104 40.8996 26.166 41.188 25.2H44.8C46.2852 25.2 47.7096 25.79 48.7598 26.8402C49.81 27.8904 50.4 29.3148 50.4 30.8V44.8C50.4 46.2852 49.81 47.7096 48.7598 48.7598C47.7096 49.81 46.2852 50.4 44.8 50.4H25.2C23.7148 50.4 22.2904 49.81 21.2402 48.7598C20.19 47.7096 19.6 46.2852 19.6 44.8V39.004C20.5156 39.1328 21.448 39.2 22.4 39.2V44.8C22.4 45.5426 22.695 46.2548 23.2201 46.7799C23.7452 47.305 24.4574 47.6 25.2 47.6H44.8C45.5426 47.6 46.2548 47.305 46.7799 46.7799C47.305 46.2548 47.6 45.5426 47.6 44.8V35.8652L35.6272 41.8516C35.4325 41.9492 35.2178 42 35 42C34.7822 42 34.5675 41.9492 34.3728 41.8516Z" fill="#149CD7"/>
</svg>
