<svg width="56" height="56" viewBox="0 0 56 56" fill="none" xmlns="http://www.w3.org/2000/svg">
<g clip-path="url(#clip0_9_293)">
<path d="M51.3333 5.25001H43.75V1.75001C43.7503 1.28588 43.5662 0.840636 43.2383 0.512229C42.9103 0.183821 42.4653 -0.000849833 42.0012 -0.00115925C41.537 -0.00146867 41.0918 0.182609 40.7634 0.510579C40.435 0.838549 40.2503 1.28355 40.25 1.74767V5.25001H29.75V1.75001C29.7502 1.52019 29.705 1.2926 29.6172 1.08022C29.5294 0.867844 29.4007 0.67484 29.2383 0.512229C29.0759 0.349618 28.883 0.220585 28.6708 0.132498C28.4585 0.0444107 28.231 -0.00100607 28.0012 -0.00115928C27.537 -0.0014687 27.0918 0.182609 26.7634 0.510579C26.435 0.838549 26.2503 1.28355 26.25 1.74767V5.25001H15.75V1.75001C15.7502 1.52019 15.705 1.2926 15.6172 1.08022C15.5294 0.867844 15.4007 0.67484 15.2383 0.512229C15.0759 0.349618 14.883 0.220585 14.6708 0.132498C14.4585 0.0444107 14.231 -0.00100607 14.0012 -0.00115928C13.537 -0.0014687 13.0918 0.182609 12.7634 0.510579C12.435 0.838549 12.2503 1.28355 12.25 1.74767V5.25001H4.66667C3.42939 5.25001 2.24276 5.74135 1.36766 6.61602C0.492557 7.49068 0.000618636 8.67707 0 9.91434V51.331C0 52.5687 0.491665 53.7557 1.36683 54.6308C2.242 55.506 3.42899 55.9977 4.66667 55.9977H51.3333C52.571 55.9977 53.758 55.506 54.6332 54.6308C55.5083 53.7557 56 52.5687 56 51.331V9.91434C55.9994 8.67707 55.5074 7.49068 54.6323 6.61602C53.7572 5.74135 52.5706 5.25001 51.3333 5.25001ZM52.5 51.3333C52.5 51.6424 52.3774 51.9387 52.1591 52.1575C51.9408 52.3762 51.6447 52.4994 51.3357 52.5H4.66667C4.35725 52.5 4.0605 52.3771 3.84171 52.1583C3.62292 51.9395 3.5 51.6428 3.5 51.3333V9.91667C3.50062 9.60766 3.62381 9.31151 3.84253 9.09322C4.06126 8.87494 4.35765 8.75234 4.66667 8.75234H12.25V12.2523C12.2497 12.7165 12.4338 13.1617 12.7617 13.4901C13.0897 13.8185 13.5347 14.0032 13.9988 14.0035C14.463 14.0038 14.9082 13.8197 15.2366 13.4918C15.565 13.1638 15.7497 12.7188 15.75 12.2547V8.75234H26.25V12.2523C26.2497 12.7165 26.4338 13.1617 26.7617 13.4901C27.0897 13.8185 27.5347 14.0032 27.9988 14.0035C28.463 14.0038 28.9082 13.8197 29.2366 13.4918C29.565 13.1638 29.7497 12.7188 29.75 12.2547V8.75234H40.25V12.2523C40.2497 12.7165 40.4338 13.1617 40.7617 13.4901C41.0897 13.8185 41.5347 14.0032 41.9988 14.0035C42.463 14.0038 42.9082 13.8197 43.2366 13.4918C43.565 13.1638 43.7497 12.7188 43.75 12.2547V8.75234H51.3333C51.6419 8.75296 51.9377 8.87583 52.156 9.09405C52.3742 9.31227 52.4971 9.60806 52.4977 9.91667L52.5 51.3333Z" fill="#149CD7"/>
<path d="M12.25 21H19.25V26.25H12.25V21ZM12.25 29.75H19.25V35H12.25V29.75ZM12.25 38.5H19.25V43.75H12.25V38.5ZM24.5 38.5H31.5V43.75H24.5V38.5ZM24.5 29.75H31.5V35H24.5V29.75ZM24.5 21H31.5V26.25H24.5V21ZM36.75 38.5H43.75V43.75H36.75V38.5ZM36.75 29.75H43.75V35H36.75V29.75ZM36.75 21H43.75V26.25H36.75V21Z" fill="#149CD7"/>
</g>
<defs>
<clipPath id="clip0_9_293">
<rect width="56" height="56" fill="white"/>
</clipPath>
</defs>
</svg>
