<svg width="56" height="56" viewBox="0 0 56 56" fill="none" xmlns="http://www.w3.org/2000/svg">
<path d="M44.3333 46.6667C48.0667 46.6667 49 43.5563 49 42V28H39.6667M44.3333 46.6667H11.6667C7.93333 46.6667 7 43.5563 7 42V14C7 12.7623 7.49167 11.5753 8.36683 10.7002C9.242 9.82501 10.429 9.33334 11.6667 9.33334H35C36.2377 9.33334 37.4247 9.82501 38.2998 10.7002C39.175 11.5753 39.6667 12.7623 39.6667 14V28L44.3333 46.6667ZM44.3333 46.6667C42.777 46.6667 39.6667 45.7333 39.6667 42V28L44.3333 46.6667Z" stroke="#149CD7" stroke-width="4.66667" stroke-linecap="round" stroke-linejoin="round"/>
<path d="M16.3333 37.3334H30.3333H16.3333ZM28 23.3334C28 24.571 27.5083 25.758 26.6332 26.6332C25.758 27.5084 24.571 28 23.3333 28C22.0957 28 20.9087 27.5084 20.0335 26.6332C19.1583 25.758 18.6667 24.571 18.6667 23.3334C18.6667 22.0957 19.1583 20.9087 20.0335 20.0335C20.9087 19.1584 22.0957 18.6667 23.3333 18.6667C24.571 18.6667 25.758 19.1584 26.6332 20.0335C27.5083 20.9087 28 22.0957 28 23.3334V23.3334Z" stroke="#149CD7" stroke-width="4.66667" stroke-linecap="round" stroke-linejoin="round"/>
</svg>
