<svg width="56" height="56" viewBox="0 0 56 56" fill="none" xmlns="http://www.w3.org/2000/svg">
<path d="M37.3333 25.6667C41.2067 25.6667 44.31 22.54 44.31 18.6667C44.31 14.7933 41.2067 11.6667 37.3333 11.6667C33.46 11.6667 30.3333 14.7933 30.3333 18.6667C30.3333 22.54 33.46 25.6667 37.3333 25.6667ZM18.6667 25.6667C22.54 25.6667 25.6433 22.54 25.6433 18.6667C25.6433 14.7933 22.54 11.6667 18.6667 11.6667C14.7933 11.6667 11.6667 14.7933 11.6667 18.6667C11.6667 22.54 14.7933 25.6667 18.6667 25.6667ZM18.6667 30.3333C13.23 30.3333 2.33334 33.0633 2.33334 38.5V44.3333H35V38.5C35 33.0633 24.1033 30.3333 18.6667 30.3333ZM37.3333 30.3333C36.6567 30.3333 35.8867 30.38 35.07 30.45C37.7767 32.41 39.6667 35.0467 39.6667 38.5V44.3333H53.6667V38.5C53.6667 33.0633 42.77 30.3333 37.3333 30.3333Z" fill="#149CD7"/>
</svg>
