<svg width="56" height="56" viewBox="0 0 56 56" fill="none" xmlns="http://www.w3.org/2000/svg">
<path d="M5.42501 27.475C5.87939 27.8158 6.43204 28 7.00001 28C7.40693 27.9967 7.80771 27.9003 8.17168 27.7183C8.53566 27.5364 8.85319 27.2735 9.10001 26.95C10.0781 25.6459 11.3463 24.5875 12.8043 23.8585C14.2623 23.1295 15.8699 22.75 17.5 22.75C19.1301 22.75 20.7378 23.1295 22.1958 23.8585C23.6537 24.5875 24.922 25.6459 25.9 26.95H25.9219L26.075 27.125C26.075 27.1469 26.0969 27.1469 26.1188 27.1688L26.25 27.3L26.3375 27.3875L26.425 27.4531C26.4308 27.4531 26.4364 27.4554 26.4405 27.4595C26.4446 27.4636 26.4469 27.4692 26.4469 27.475L26.5125 27.5188L26.6438 27.6063L26.7094 27.65L26.8844 27.7156C26.8844 27.7375 26.9063 27.7375 26.9281 27.7375L27.125 27.825H27.1469C27.3001 27.8918 27.4622 27.936 27.6281 27.9563H28.3281L28.525 27.9125H28.6125C28.7942 27.8663 28.9702 27.8003 29.1375 27.7156L29.225 27.6719L29.3781 27.5844L29.4875 27.5188L29.575 27.4531L29.6188 27.4094L29.7063 27.3438L29.8594 27.2125L29.925 27.1469L30.0781 26.95H30.1C31.0781 25.6459 32.3463 24.5875 33.8043 23.8585C35.2623 23.1295 36.8699 22.75 38.5 22.75C40.1301 22.75 41.7378 23.1295 43.1958 23.8585C44.6537 24.5875 45.922 25.6459 46.9 26.95C47.3177 27.507 47.9396 27.8752 48.6288 27.9736C49.318 28.0721 50.0181 27.8927 50.575 27.475C51.132 27.0573 51.5002 26.4354 51.5986 25.7462C51.6971 25.057 51.5177 24.357 51.1 23.8C49.6369 21.8486 47.7429 20.2616 45.5656 19.1625C46.5186 17.8579 47.0918 16.3149 47.2217 14.7045C47.3516 13.0941 47.033 11.4793 46.3014 10.0388C45.5698 8.59833 44.4537 7.38855 43.0767 6.5435C41.6997 5.69846 40.1156 5.25116 38.5 5.25116C36.8844 5.25116 35.3003 5.69846 33.9233 6.5435C32.5464 7.38855 31.4302 8.59833 30.6986 10.0388C29.967 11.4793 29.6485 13.0941 29.7783 14.7045C29.9082 16.3149 30.4814 17.8579 31.4344 19.1625C30.1906 19.7865 29.0356 20.5736 28 21.5031C26.9644 20.5736 25.8095 19.7865 24.5656 19.1625C25.5186 17.8579 26.0918 16.3149 26.2217 14.7045C26.3516 13.0941 26.033 11.4793 25.3014 10.0388C24.5698 8.59833 23.4537 7.38855 22.0767 6.5435C20.6997 5.69846 19.1156 5.25116 17.5 5.25116C15.8844 5.25116 14.3003 5.69846 12.9233 6.5435C11.5464 7.38855 10.4302 8.59833 9.69859 10.0388C8.96698 11.4793 8.64846 13.0941 8.77833 14.7045C8.9082 16.3149 9.48139 17.8579 10.4344 19.1625C8.25712 20.2616 6.36311 21.8486 4.90001 23.8C4.48229 24.357 4.30294 25.057 4.40139 25.7462C4.49985 26.4354 4.86806 27.0573 5.42501 27.475ZM35 14C35 13.3078 35.2053 12.6311 35.5899 12.0555C35.9745 11.4799 36.5211 11.0313 37.1606 10.7664C37.8002 10.5015 38.5039 10.4322 39.1828 10.5673C39.8618 10.7023 40.4854 11.0356 40.9749 11.5251C41.4644 12.0146 41.7977 12.6383 41.9328 13.3172C42.0678 13.9961 41.9985 14.6999 41.7336 15.3394C41.4687 15.9789 41.0201 16.5256 40.4445 16.9101C39.8689 17.2947 39.1922 17.5 38.5 17.5C37.5718 17.5 36.6815 17.1313 36.0251 16.4749C35.3688 15.8185 35 14.9283 35 14ZM14 14C14 13.3078 14.2053 12.6311 14.5899 12.0555C14.9745 11.4799 15.5211 11.0313 16.1606 10.7664C16.8002 10.5015 17.5039 10.4322 18.1828 10.5673C18.8618 10.7023 19.4854 11.0356 19.9749 11.5251C20.4644 12.0146 20.7977 12.6383 20.9328 13.3172C21.0678 13.9961 20.9985 14.6999 20.7336 15.3394C20.4687 15.9789 20.0201 16.5256 19.4445 16.9101C18.8689 17.2947 18.1922 17.5 17.5 17.5C16.5718 17.5 15.6815 17.1313 15.0251 16.4749C14.3688 15.8185 14 14.9283 14 14ZM45.5656 42.7875C46.5186 41.4829 47.0918 39.9399 47.2217 38.3295C47.3516 36.7191 47.033 35.1043 46.3014 33.6638C45.5698 32.2233 44.4537 31.0135 43.0767 30.1685C41.6997 29.3235 40.1156 28.8762 38.5 28.8762C36.8844 28.8762 35.3003 29.3235 33.9233 30.1685C32.5464 31.0135 31.4302 32.2233 30.6986 33.6638C29.967 35.1043 29.6485 36.7191 29.7783 38.3295C29.9082 39.9399 30.4814 41.4829 31.4344 42.7875C30.1906 43.4115 29.0356 44.1986 28 45.1281C26.9644 44.1986 25.8095 43.4115 24.5656 42.7875C25.5186 41.4829 26.0918 39.9399 26.2217 38.3295C26.3516 36.7191 26.033 35.1043 25.3014 33.6638C24.5698 32.2233 23.4537 31.0135 22.0767 30.1685C20.6997 29.3235 19.1156 28.8762 17.5 28.8762C15.8844 28.8762 14.3003 29.3235 12.9233 30.1685C11.5464 31.0135 10.4302 32.2233 9.69859 33.6638C8.96698 35.1043 8.64846 36.7191 8.77833 38.3295C8.9082 39.9399 9.48139 41.4829 10.4344 42.7875C8.25712 43.8866 6.36311 45.4736 4.90001 47.425C4.60751 47.815 4.4294 48.2787 4.38562 48.7643C4.34184 49.2498 4.43413 49.7379 4.65214 50.1739C4.87015 50.61 5.20528 50.9767 5.61997 51.233C6.03465 51.4893 6.51252 51.625 7.00001 51.625C7.40693 51.6217 7.80771 51.5253 8.17168 51.3433C8.53566 51.1614 8.85319 50.8985 9.10001 50.575C10.0781 49.2709 11.3463 48.2125 12.8043 47.4835C14.2623 46.7545 15.8699 46.375 17.5 46.375C19.1301 46.375 20.7378 46.7545 22.1958 47.4835C23.6537 48.2125 24.922 49.2709 25.9 50.575H25.9219L26.075 50.75C26.075 50.7616 26.0796 50.7727 26.0878 50.7809C26.096 50.7891 26.1072 50.7938 26.1188 50.7938L26.25 50.925L26.3375 51.0125L26.425 51.0781H26.4469L26.5125 51.1219L26.6438 51.2094L26.7094 51.2531L26.8844 51.3188L26.9281 51.3625L27.125 51.4281H27.1469C27.3001 51.4949 27.4622 51.5391 27.6281 51.5594H28.3281L28.525 51.5156H28.6125L29.1375 51.3188L29.225 51.275L29.3781 51.1875L29.4875 51.1219L29.575 51.0563L29.6188 51.0125L29.7063 50.9469L29.8594 50.8156L29.925 50.75L30.0781 50.5531H30.1C31.0781 49.2491 32.3463 48.1906 33.8043 47.4616C35.2623 46.7327 36.8699 46.3531 38.5 46.3531C40.1301 46.3531 41.7378 46.7327 43.1958 47.4616C44.6537 48.1906 45.922 49.2491 46.9 50.5531C47.3177 51.1101 47.9396 51.4783 48.6288 51.5767C49.318 51.6752 50.0181 51.4958 50.575 51.0781C51.132 50.6604 51.5002 50.0386 51.5986 49.3494C51.6971 48.6602 51.5177 47.9601 51.1 47.4031C49.6344 45.4597 47.7406 43.8803 45.5656 42.7875ZM14 37.625C14 36.9328 14.2053 36.2561 14.5899 35.6805C14.9745 35.1049 15.5211 34.6563 16.1606 34.3914C16.8002 34.1265 17.5039 34.0572 18.1828 34.1923C18.8618 34.3273 19.4854 34.6606 19.9749 35.1501C20.4644 35.6396 20.7977 36.2633 20.9328 36.9422C21.0678 37.6211 20.9985 38.3249 20.7336 38.9644C20.4687 39.6039 20.0201 40.1506 19.4445 40.5351C18.8689 40.9197 18.1922 41.125 17.5 41.125C16.5718 41.125 15.6815 40.7563 15.0251 40.0999C14.3688 39.4435 14 38.5533 14 37.625ZM35 37.625C35 36.9328 35.2053 36.2561 35.5899 35.6805C35.9745 35.1049 36.5211 34.6563 37.1606 34.3914C37.8002 34.1265 38.5039 34.0572 39.1828 34.1923C39.8618 34.3273 40.4854 34.6606 40.9749 35.1501C41.4644 35.6396 41.7977 36.2633 41.9328 36.9422C42.0678 37.6211 41.9985 38.3249 41.7336 38.9644C41.4687 39.6039 41.0201 40.1506 40.4445 40.5351C39.8689 40.9197 39.1922 41.125 38.5 41.125C37.5718 41.125 36.6815 40.7563 36.0251 40.0999C35.3688 39.4435 35 38.5533 35 37.625Z" fill="#149CD7"/>
</svg>
