<svg width="56" height="56" viewBox="0 0 56 56" fill="none" xmlns="http://www.w3.org/2000/svg">
<path d="M44.66 30.184C44.744 29.484 44.8 28.756 44.8 28C44.8 27.244 44.744 26.516 44.632 25.816L49.364 22.12C49.784 21.784 49.896 21.168 49.644 20.692L45.164 12.936C44.884 12.432 44.296 12.264 43.792 12.432L38.22 14.672C37.044 13.776 35.812 13.048 34.44 12.488L33.6 6.55201C33.516 5.99201 33.04 5.60001 32.48 5.60001H23.52C22.96 5.60001 22.512 5.99201 22.428 6.55201L21.588 12.488C20.216 13.048 18.956 13.804 17.808 14.672L12.236 12.432C11.732 12.236 11.144 12.432 10.864 12.936L6.38398 20.692C6.10398 21.196 6.21598 21.784 6.66398 22.12L11.396 25.816C11.284 26.516 11.2 27.272 11.2 28C11.2 28.728 11.256 29.484 11.368 30.184L6.63598 33.88C6.21598 34.216 6.10398 34.832 6.35598 35.308L10.836 43.064C11.116 43.568 11.704 43.736 12.208 43.568L17.78 41.328C18.956 42.224 20.188 42.952 21.56 43.512L22.4 49.448C22.512 50.008 22.96 50.4 23.52 50.4H32.48C33.04 50.4 33.516 50.008 33.572 49.448L34.412 43.512C35.784 42.952 37.044 42.196 38.192 41.328L43.764 43.568C44.268 43.764 44.856 43.568 45.136 43.064L49.616 35.308C49.896 34.804 49.784 34.216 49.336 33.88L44.66 30.184ZM28 36.4C23.38 36.4 19.6 32.62 19.6 28C19.6 23.38 23.38 19.6 28 19.6C32.62 19.6 36.4 23.38 36.4 28C36.4 32.62 32.62 36.4 28 36.4Z" fill="#149CD7"/>
</svg>
