<svg width="56" height="56" viewBox="0 0 56 56" fill="none" xmlns="http://www.w3.org/2000/svg">
<path d="M29.5167 23.3333C27.6033 17.8967 22.4233 14 16.3333 14C8.61 14 2.33333 20.2767 2.33333 28C2.33333 35.7233 8.61 42 16.3333 42C22.4233 42 27.6033 38.1033 29.5167 32.6667H39.6667V42H49V32.6667H53.6667V23.3333H29.5167ZM16.3333 32.6667C13.7667 32.6667 11.6667 30.5667 11.6667 28C11.6667 25.4333 13.7667 23.3333 16.3333 23.3333C18.9 23.3333 21 25.4333 21 28C21 30.5667 18.9 32.6667 16.3333 32.6667Z" fill="#149CD7"/>
</svg>
