<svg width="36" height="50" viewBox="0 0 36 50" fill="none" xmlns="http://www.w3.org/2000/svg">
<path d="M18 21.5C16.6155 21.5 15.2622 21.0895 14.111 20.3203C12.9599 19.5511 12.0627 18.4579 11.5328 17.1788C11.003 15.8997 10.8644 14.4922 11.1345 13.1344C11.4046 11.7765 12.0713 10.5292 13.0503 9.55025C14.0292 8.57128 15.2765 7.9046 16.6344 7.6345C17.9922 7.36441 19.3997 7.50303 20.6788 8.03284C21.9579 8.56266 23.0511 9.45986 23.8203 10.611C24.5895 11.7622 25 13.1155 25 14.5C24.9945 16.3548 24.2552 18.1321 22.9436 19.4436C21.6321 20.7552 19.8548 21.4945 18 21.5ZM18 11C17.3078 11 16.6311 11.2053 16.0555 11.5899C15.4799 11.9744 15.0313 12.5211 14.7664 13.1606C14.5015 13.8001 14.4322 14.5039 14.5672 15.1828C14.7023 15.8617 15.0356 16.4854 15.5251 16.9749C16.0146 17.4644 16.6382 17.7977 17.3172 17.9327C17.9961 18.0678 18.6999 17.9985 19.3394 17.7336C19.9789 17.4687 20.5256 17.0201 20.9101 16.4445C21.2947 15.8689 21.5 15.1922 21.5 14.5C21.4972 13.5726 21.1276 12.684 20.4718 12.0282C19.816 11.3724 18.9274 11.0028 18 11Z" fill="#149CD7"/>
<path d="M32 0.5H4C3.07203 0.500927 2.18233 0.869973 1.52615 1.52615C0.869973 2.18233 0.500927 3.07203 0.5 4V46C0.500927 46.928 0.869973 47.8177 1.52615 48.4739C2.18233 49.13 3.07203 49.4991 4 49.5H32C32.928 49.4991 33.8177 49.13 34.4739 48.4739C35.13 47.8177 35.4991 46.928 35.5 46V4C35.4991 3.07203 35.13 2.18233 34.4739 1.52615C33.8177 0.869973 32.928 0.500927 32 0.5ZM11 39V28.5C10.986 28.2665 11.0216 28.0327 11.1046 27.8141C11.1876 27.5954 11.316 27.3968 11.4814 27.2314C11.6468 27.066 11.8454 26.9376 12.0641 26.8546C12.2827 26.7716 12.5165 26.736 12.75 26.75H23.25C23.4835 26.736 23.7173 26.7716 23.9359 26.8546C24.1546 26.9376 24.3532 27.066 24.5186 27.2314C24.684 27.3968 24.8124 27.5954 24.8954 27.8141C24.9784 28.0327 25.014 28.2665 25 28.5V39H21.5V46H14.5V39H11ZM25 46V42.5C25.9274 42.4972 26.816 42.1276 27.4718 41.4718C28.1276 40.816 28.4972 39.9274 28.5 39V28.5C28.5128 27.807 28.3858 27.1186 28.1265 26.4758C27.8672 25.8331 27.481 25.2492 26.9909 24.7591C26.5008 24.269 25.9169 23.8828 25.2742 23.6235C24.6314 23.3642 23.943 23.2372 23.25 23.25H12.75C12.057 23.2372 11.3686 23.3642 10.7258 23.6235C10.0831 23.8828 9.49921 24.269 9.00913 24.7591C8.51904 25.2492 8.13281 25.8331 7.87351 26.4758C7.61421 27.1186 7.48718 27.807 7.5 28.5V39C7.50277 39.9274 7.87241 40.816 8.52819 41.4718C9.18396 42.1276 10.0726 42.4972 11 42.5V46H4V4H32V46H25Z" fill="#149CD7"/>
</svg>
