<svg width="46" height="46" viewBox="0 0 46 46" fill="none" xmlns="http://www.w3.org/2000/svg">
<path d="M0 7V28C0 29.8565 0.737498 31.637 2.05025 32.9497C3.36301 34.2625 5.14348 35 7 35H10.5V31.5H7C6.07174 31.5 5.1815 31.1313 4.52513 30.4749C3.86875 29.8185 3.5 28.9283 3.5 28V12.25H13.125C13.5599 12.2497 13.9792 12.0875 14.301 11.795L19.5755 7H35C35.9283 7 36.8185 7.36875 37.4749 8.02513C38.1312 8.6815 38.5 9.57174 38.5 10.5V17.5H40.25C40.8485 17.5 41.433 17.5595 42 17.675V10.5C42 8.64348 41.2625 6.86301 39.9497 5.55025C38.637 4.2375 36.8565 3.5 35 3.5H18.1125L14.217 0.385C13.9072 0.136476 13.5221 0.000707504 13.125 0H7C5.14348 0 3.36301 0.737498 2.05025 2.05025C0.737498 3.36301 0 5.14348 0 7ZM3.5 7C3.5 6.07174 3.86875 5.1815 4.52513 4.52513C5.1815 3.86875 6.07174 3.5 7 3.5H12.5125L15.5505 5.9325L12.4495 8.75H3.5V7ZM14.0455 25.564L29.785 34.7445L45.5 26.2815V26.25C45.5 24.8576 44.9469 23.5223 43.9623 22.5377C42.9777 21.5531 41.6424 21 40.25 21H19.25C17.9765 21.0001 16.7465 21.4631 15.789 22.3028C14.8315 23.1424 14.2119 24.3014 14.0455 25.564ZM45.5 30.254L30.5795 38.29C30.3157 38.4323 30.0198 38.5044 29.7201 38.4995C29.4204 38.4946 29.127 38.4128 28.868 38.262L14 29.589V40.25C14 41.6424 14.5531 42.9777 15.5377 43.9623C16.5223 44.9469 17.8576 45.5 19.25 45.5H40.25C41.6424 45.5 42.9777 44.9469 43.9623 43.9623C44.9469 42.9777 45.5 41.6424 45.5 40.25V30.254Z" fill="#149CD7"/>
</svg>
