<svg width="52" height="45" viewBox="0 0 52 45" fill="none" xmlns="http://www.w3.org/2000/svg">
<path d="M16.6667 3C16.6667 1.71134 15.622 0.666667 14.3334 0.666667C13.0447 0.666667 12 1.71134 12 3H16.6667ZM12 12.3333C12 13.622 13.0447 14.6667 14.3334 14.6667C15.622 14.6667 16.6667 13.622 16.6667 12.3333H12ZM27.1667 25.1667C28.4553 25.1667 29.5 24.122 29.5 22.8333C29.5 21.5447 28.4553 20.5 27.1667 20.5V25.1667ZM14.3334 20.5C13.0447 20.5 12 21.5447 12 22.8333C12 24.122 13.0447 25.1667 14.3334 25.1667V20.5ZM37.6667 34.5C38.9554 34.5 40 33.4553 40 32.1667C40 30.878 38.9554 29.8333 37.6667 29.8333V34.5ZM14.3334 29.8333C13.0447 29.8333 12 30.878 12 32.1667C12 33.4553 13.0447 34.5 14.3334 34.5V29.8333ZM40 3C40 1.71134 38.9554 0.666667 37.6667 0.666667C36.378 0.666667 35.3334 1.71134 35.3334 3H40ZM35.3334 12.3333C35.3334 13.622 36.378 14.6667 37.6667 14.6667C38.9554 14.6667 40 13.622 40 12.3333H35.3334ZM5.00002 10H47V5.33333H5.00002V10ZM47 10L47 10H51.6667C51.6667 7.42267 49.5774 5.33333 47 5.33333V10ZM47 10V40.3333H51.6667V10H47ZM47 40.3333L47 40.3333V45C49.5774 45 51.6667 42.9107 51.6667 40.3333H47ZM47 40.3333H5.00002V45H47V40.3333ZM5.00002 40.3333V40.3333H0.333354C0.333354 42.9107 2.42269 45 5.00002 45V40.3333ZM5.00002 40.3333V10H0.333354V40.3333H5.00002ZM5.00002 10V10V5.33333C2.42269 5.33333 0.333354 7.42267 0.333354 10H5.00002ZM12 3V12.3333H16.6667V3H12ZM27.1667 20.5H14.3334V25.1667H27.1667V20.5ZM37.6667 29.8333H14.3334V34.5H37.6667V29.8333ZM35.3334 3V12.3333H40V3H35.3334Z" fill="#149CD7"/>
</svg>
