<svg width="46" height="48" viewBox="0 0 46 48" fill="none" xmlns="http://www.w3.org/2000/svg">
<path fill-rule="evenodd" clip-rule="evenodd" d="M36.75 37.25L45.5 40.75V37.25L36.75 32.875V28.5C36.75 28.0359 36.5656 27.5908 36.2374 27.2626C35.9092 26.9344 35.4641 26.75 35 26.75C34.5359 26.75 34.0908 26.9344 33.7626 27.2626C33.4344 27.5908 33.25 28.0359 33.25 28.5V32.875L24.5 37.25V40.75L33.25 37.25V43.375L29.75 46V47.75L35 46L40.25 47.75V46L36.75 43.375V37.25Z" fill="#149CD7"/>
<path fill-rule="evenodd" clip-rule="evenodd" d="M38.5 4H31.5V0.5H28V4H14V0.5H10.5V4H3.5C2.57174 4 1.6815 4.36875 1.02513 5.02513C0.368749 5.6815 0 6.57174 0 7.5V42.5C0 43.4283 0.368749 44.3185 1.02513 44.9749C1.6815 45.6312 2.57174 46 3.5 46H21V42.5H3.5V7.5H10.5V11H14V7.5H28V11H31.5V7.5H38.5V19.75H42V7.5C42 6.57174 41.6312 5.6815 40.9749 5.02513C40.3185 4.36875 39.4283 4 38.5 4Z" fill="#149CD7"/>
</svg>
