<svg width="45" height="50" viewBox="0 0 45 50" fill="none" xmlns="http://www.w3.org/2000/svg">
<path d="M44.5 39V35.5H40.8232C40.5976 34.4045 40.1626 33.3629 39.5423 32.4322L42.1497 29.8247L39.6753 27.3503L37.0677 29.9578C36.1371 29.3374 35.0955 28.9024 34 28.6768V25H30.5V28.6768C29.4045 28.9024 28.3629 29.3374 27.4322 29.9578L24.8247 27.3503L22.3503 29.8247L24.9578 32.4322C24.3374 33.3629 23.9024 34.4045 23.6768 35.5H20V39H23.6768C23.9024 40.0955 24.3374 41.1371 24.9578 42.0677L22.3503 44.6753L24.8247 47.1497L27.4322 44.5423C28.3629 45.1626 29.4045 45.5976 30.5 45.8232V49.5H34V45.8232C35.0955 45.5976 36.1371 45.1626 37.0677 44.5423L39.6753 47.1497L42.1497 44.6753L39.5423 42.0677C40.1626 41.1371 40.5976 40.0955 40.8232 39H44.5ZM32.25 42.5C31.2116 42.5 30.1966 42.1921 29.3333 41.6152C28.4699 41.0383 27.797 40.2184 27.3996 39.2591C27.0023 38.2998 26.8983 37.2442 27.1009 36.2258C27.3034 35.2074 27.8035 34.2719 28.5377 33.5377C29.2719 32.8035 30.2074 32.3034 31.2258 32.1009C32.2442 31.8983 33.2998 32.0023 34.2591 32.3996C35.2184 32.797 36.0383 33.4699 36.6152 34.3333C37.1921 35.1966 37.5 36.2116 37.5 37.25C37.4986 38.642 36.945 39.9765 35.9608 40.9608C34.9765 41.945 33.642 42.4986 32.25 42.5Z" fill="#149CD7"/>
<path d="M35.75 5.75H30.5V4C30.4972 3.07259 30.1276 2.18396 29.4718 1.52819C28.816 0.872408 27.9274 0.50277 27 0.5H13C12.0726 0.50277 11.184 0.872408 10.5282 1.52819C9.87241 2.18396 9.50277 3.07259 9.5 4V5.75H4.25C3.32259 5.75277 2.43396 6.12241 1.77819 6.77819C1.12241 7.43396 0.75277 8.32259 0.75 9.25V46C0.75277 46.9274 1.12241 47.816 1.77819 48.4718C2.43396 49.1276 3.32259 49.4972 4.25 49.5H16.5V46H4.25V9.25H9.5V14.5H30.5V9.25H35.75V19.75H39.25V9.25C39.2472 8.32259 38.8776 7.43396 38.2218 6.77819C37.566 6.12241 36.6774 5.75277 35.75 5.75ZM27 11H13V4H27V11Z" fill="#149CD7"/>
</svg>
