<svg width="56" height="56" viewBox="0 0 56 56" fill="none" xmlns="http://www.w3.org/2000/svg">
<path d="M56 39.2V50.4C56 51.8852 55.41 53.3096 54.3598 54.3598C53.3096 55.41 51.8852 56 50.4 56H39.2V50.4C39.2 48.9148 38.61 47.4904 37.5598 46.4402C36.5096 45.39 35.0852 44.8 33.6 44.8C32.1148 44.8 30.6904 45.39 29.6402 46.4402C28.59 47.4904 28 48.9148 28 50.4V56H16.8C15.3148 56 13.8904 55.41 12.8402 54.3598C11.79 53.3096 11.2 51.8852 11.2 50.4V39.2H5.6C4.11479 39.2 2.69041 38.61 1.6402 37.5598C0.589998 36.5096 0 35.0852 0 33.6C0 32.1148 0.589998 30.6904 1.6402 29.6402C2.69041 28.59 4.11479 28 5.6 28H11.2V16.8C11.2 13.72 13.72 11.2 16.8 11.2H28V5.6C28 4.11479 28.59 2.69041 29.6402 1.6402C30.6904 0.589998 32.1148 0 33.6 0C35.0852 0 36.5096 0.589998 37.5598 1.6402C38.61 2.69041 39.2 4.11479 39.2 5.6V11.2H50.4C51.8852 11.2 53.3096 11.79 54.3598 12.8402C55.41 13.8904 56 15.3148 56 16.8V28H50.4C48.9148 28 47.4904 28.59 46.4402 29.6402C45.39 30.6904 44.8 32.1148 44.8 33.6C44.8 35.0852 45.39 36.5096 46.4402 37.5598C47.4904 38.61 48.9148 39.2 50.4 39.2H56Z" fill="#149CD7"/>
</svg>
