<svg width="46" height="50" viewBox="0 0 46 50" fill="none" xmlns="http://www.w3.org/2000/svg">
<path d="M35 49.5C32.9233 49.5 30.8932 48.8842 29.1665 47.7304C27.4398 46.5767 26.094 44.9368 25.2993 43.0182C24.5045 41.0995 24.2966 38.9883 24.7018 36.9515C25.1069 34.9147 26.1069 33.0438 27.5754 31.5754C29.0438 30.1069 30.9148 29.1069 32.9516 28.7017C34.9884 28.2966 37.0996 28.5045 39.0182 29.2992C40.9368 30.094 42.5767 31.4398 43.7304 33.1665C44.8842 34.8932 45.5 36.9233 45.5 39C45.4968 41.7838 44.3895 44.4526 42.421 46.421C40.4526 48.3895 37.7838 49.4967 35 49.5ZM35 32C33.6155 32 32.2622 32.4105 31.111 33.1797C29.9599 33.9489 29.0627 35.0421 28.5328 36.3212C28.003 37.6003 27.8644 39.0077 28.1345 40.3656C28.4046 41.7235 29.0713 42.9708 30.0503 43.9497C31.0292 44.9287 32.2765 45.5954 33.6344 45.8655C34.9922 46.1356 36.3997 45.997 37.6788 45.4671C38.9579 44.9373 40.0511 44.0401 40.8203 42.889C41.5895 41.7378 42 40.3845 42 39C41.9977 37.1442 41.2594 35.365 39.9472 34.0528C38.6349 32.7405 36.8558 32.0023 35 32ZM7 35.5H21V39H7V35.5ZM7 25H24.5V28.5H7V25Z" fill="#149CD7"/>
<path d="M21 46H3.5V3.99998H17.5V14.5C17.5028 15.4274 17.8724 16.316 18.5282 16.9718C19.184 17.6276 20.0726 17.9972 21 18H31.5V23.25H35V14.5C35.0062 14.27 34.9624 14.0414 34.8718 13.8299C34.7812 13.6185 34.6458 13.4291 34.475 13.275L22.225 1.02498C22.0709 0.854088 21.8816 0.718648 21.6701 0.62801C21.4586 0.537371 21.23 0.493692 21 0.499985H3.5C2.57259 0.502754 1.68396 0.872393 1.02819 1.52817C0.372408 2.18395 0.00276977 3.07258 0 3.99998V46C0.00276977 46.9274 0.372408 47.816 1.02819 48.4718C1.68396 49.1276 2.57259 49.4972 3.5 49.5H21V46ZM21 4.69998L30.8 14.5H21V4.69998Z" fill="#149CD7"/>
</svg>
